<svg contentScriptType="text/ecmascript" width="188.5664180997322" zoomAndPan="magnify" contentStyleType="text/css" height="229.99794510963423" preserveAspectRatio="xMidYMid meet" version="1.0" xmlns="http://www.w3.org/2000/svg" xmlns:xlink="http://www.w3.org/1999/xlink">
    <g class="atomset" opacity="0.0" id="as4">
        <rect x="12.14209" width="153.82616000000002" height="195.845594" y="18.326172" visibility="visible"/>
        <title>Aspirin.</title>
        <desc>Molecule consisting of Ring with 6 elements and Functional group C O C O C H3 and Functional group C O O H.</desc>
    </g>
    <g class="atomset" opacity="0.0" id="as1">
        <rect x="91.88128" width="74.08697000000001" height="89.99909" y="59.99954" visibility="visible"/>
        <title>Benzene ring Substitutions at positions 1 and 2.</title>
        <desc>Ring with 6 elements double bond between positions 4 and 5 double bond between positions 2 and 3 double bond between positions 1 and 6 Substitutions at positions 1 and 2.</desc>
    </g>
    <g class="atomset" opacity="0.0" id="as3">
        <rect x="18.689941" width="92.77857399999999" height="95.672896" y="118.49887" visibility="visible"/>
        <title>Functional group Ester.</title>
        <desc>Functional group C O C O C H3.</desc>
    </g>
    <g class="atomset" opacity="0.0" id="as2">
        <rect x="12.14209" width="53.81157300000001" height="73.346969" y="18.326172" visibility="visible"/>
        <title>Functional group Carboxylic acid.</title>
        <desc>Functional group C O O H.</desc>
    </g>
    <g>
        <g>
            <g class="bond" id="b1">
                <line x1="94.2832090498661" x2="59.643604502100935" y1="204.99794510963423" y2="184.99817343078598" stroke="rgb(0, 0, 0)" stroke-width="1.0"/>
                <polygon opacity="0.0" points="57.643604,182.99817 61.643604,182.99817 96.28321,202.99794 96.28321,206.99794 92.28321,206.99794 57.643604,186.99817 57.643604,182.99817"/>
                <title>single bond.</title>
            </g>
            <g id="b2">
                <line x1="163.5664180997322" x2="163.5664180997322" y1="84.99931503654474" y2="124.99885839424124" class="bond" stroke="rgb(0, 0, 0)" stroke-width="1.0"/>
                <line x1="158.37007742213385" x2="158.37007742213385" y1="121.998892642414" y2="87.99928078837198" class="bond" stroke="rgb(0, 0, 0)" stroke-width="1.0"/>
                <polygon opacity="0.0" points="163.56642,84.99931 163.56642,124.998856 158.37007,121.99889 158.37007,87.99928 163.56642,84.99931"/>
                <title>double bond.</title>
            </g>
            <g class="bond" id="b3">
                <line x1="163.5664180997322" x2="128.92281359763126" y1="84.99931503654474" y2="64.9995433576965" stroke="rgb(0, 0, 0)" stroke-width="1.0"/>
                <polygon opacity="0.0" points="126.92282,62.999539999999996 130.92282,62.999539999999996 165.56642,82.99931 165.56642,86.99931 161.56642,86.99931 126.92282,66.99954 126.92282,62.999539999999996"/>
                <title>single bond.</title>
            </g>
            <g class="bond" id="b4">
                <line x1="163.5664180997322" x2="128.92281359763126" y1="124.99885839424124" y2="144.9986300730895" stroke="rgb(0, 0, 0)" stroke-width="1.0"/>
                <polygon opacity="0.0" points="161.56642,122.998856 165.56642,122.998856 165.56642,126.998856 130.92282,146.99863 126.92282,146.99863 126.92282,142.99863 161.56642,122.998856"/>
                <title>single bond.</title>
            </g>
            <g id="b5">
                <line x1="128.92281359763126" x2="94.2832090498661" y1="64.9995433576965" y2="84.99931503654474" class="bond" stroke="rgb(0, 0, 0)" stroke-width="1.0"/>
                <line x1="99.47934972974767" x2="128.92301359534804" y1="87.99928078837198" y2="70.99947486135098" class="bond" stroke="rgb(0, 0, 0)" stroke-width="1.0"/>
                <polygon opacity="0.0" points="128.92282,64.99954 128.92302,70.99947 99.47935,87.99928 94.28321,84.99931 128.92282,64.99954"/>
                <title>double bond.</title>
            </g>
            <g id="b6">
                <line x1="128.92281359763126" x2="94.2832090498661" y1="144.9986300730895" y2="124.99885839424124" class="bond" stroke="rgb(0, 0, 0)" stroke-width="1.0"/>
                <line x1="99.47934972974767" x2="128.92301359534804" y1="121.998892642414" y2="138.99869856943502" class="bond" stroke="rgb(0, 0, 0)" stroke-width="1.0"/>
                <polygon opacity="0.0" points="99.47935,121.99889 128.92302,138.9987 128.92282,144.99863 94.28321,124.998856 99.47935,121.99889"/>
                <title>double bond.</title>
            </g>
            <g id="b7">
                <line x1="60.64353990336097" x2="25.999935401260046" y1="186.7302615328486" y2="206.73003321169688" class="bond" stroke="rgb(0, 0, 0)" stroke-width="1.0"/>
                <line x1="58.6436691008409" x2="24.000064598739968" y1="183.26608532872336" y2="203.26585700757158" class="bond" stroke="rgb(0, 0, 0)" stroke-width="1.0"/>
                <polygon opacity="0.0" points="58.64367,183.26608 60.64354,186.73026 25.999935,206.73004 24.000065,203.26585 58.64367,183.26608"/>
                <title>double bond.</title>
            </g>
            <g class="bond" id="b8">
                <line x1="59.643604502100935" x2="59.643604502100935" y1="184.99817343078598" y2="144.9986300730895" stroke="rgb(0, 0, 0)" stroke-width="1.0"/>
                <polygon opacity="0.0" points="57.643604,142.99863 61.643604,142.99863 61.643604,186.99817 57.643604,186.99817 57.643604,142.99863"/>
                <title>single bond.</title>
            </g>
            <g class="bond" id="b9">
                <line x1="94.2832090498661" x2="94.2832090498661" y1="84.99931503654474" y2="124.99885839424124" stroke="rgb(0, 0, 0)" stroke-width="1.0"/>
                <polygon opacity="0.0" points="92.28321,82.99931 96.28321,82.99931 96.28321,126.998856 92.28321,126.998856 92.28321,82.99931"/>
                <title>single bond.</title>
            </g>
            <g class="bond" id="b10">
                <line x1="94.2832090498661" x2="59.643604502100935" y1="84.99931503654474" y2="64.9995433576965" stroke="rgb(0, 0, 0)" stroke-width="1.0"/>
                <polygon opacity="0.0" points="57.643604,62.999539999999996 61.643604,62.999539999999996 96.28321,82.99931 96.28321,86.99931 92.28321,86.99931 57.643604,66.99954 57.643604,62.999539999999996"/>
                <title>single bond.</title>
            </g>
            <g class="bond" id="b11">
                <line x1="94.2832090498661" x2="59.643604502100935" y1="124.99885839424124" y2="144.9986300730895" stroke="rgb(0, 0, 0)" stroke-width="1.0"/>
                <polygon opacity="0.0" points="92.28321,122.998856 96.28321,122.998856 96.28321,126.998856 61.643604,146.99863 57.643604,146.99863 57.643604,142.99863 92.28321,122.998856"/>
                <title>single bond.</title>
            </g>
            <g id="b12">
                <line x1="57.643604502100935" x2="57.643604502100935" y1="64.9995433576965" y2="25.0" class="bond" stroke="rgb(0, 0, 0)" stroke-width="1.0"/>
                <line x1="61.643604502100935" x2="61.643604502100935" y1="64.9995433576965" y2="25.0" class="bond" stroke="rgb(0, 0, 0)" stroke-width="1.0"/>
                <polygon opacity="0.0" points="57.643604,25.0 61.643604,25.0 61.643604,64.99954 57.643604,64.99954 57.643604,25.0"/>
                <title>double bond.</title>
            </g>
            <g class="bond" id="b13">
                <line x1="59.643604502100935" x2="25.0" y1="64.9995433576965" y2="84.99931503654474" stroke="rgb(0, 0, 0)" stroke-width="1.0"/>
                <polygon opacity="0.0" points="57.643604,62.999539999999996 61.643604,62.999539999999996 61.643604,66.99954 27.0,86.99931 23.0,86.99931 23.0,82.99931 57.643604,62.999539999999996"/>
                <title>single bond.</title>
            </g>
        </g>
        <g>
            <g class="atom" id="a1">
                <rect x="77.0979063154911" y="195.82411698463423" fill="rgb(255, 255, 255)" width="34.37060546875" height="18.34765625" stroke="rgb(255, 255, 255)" stroke-width="1.0"/>
                <text x="78.0979063154911" font-size="15.0px" y="213.17177323463423" fill="rgb(144, 144, 144)" font-family="Serif" stroke="rgb(144, 144, 144)" stroke-width="1.0">H
                    <tspan baseline-shift="-5px">3</tspan>C
                </text>
                <rect x="77.0979063154911" y="195.82411698463423" fill="rgb(255, 255, 255)" width="34.37060546875" opacity="0.0" height="18.34765625" stroke="rgb(255, 255, 255)" stroke-width="1.0"/>
                <title>Carbon 5 bonded to 3 hydrogens.</title>
            </g>
            <g class="atom" id="a10">
                <rect x="18.68994140625" y="198.32411698463423" fill="rgb(255, 255, 255)" width="12.6201171875" height="13.34765625" stroke="rgb(255, 255, 255)" stroke-width="1.0"/>
                <text x="19.68994140625" font-size="15.0px" y="210.67177323463423" fill="rgb(255, 13, 13)" font-family="Serif" stroke="rgb(255, 13, 13)" stroke-width="1.0">O</text>
                <rect x="18.68994140625" y="198.32411698463423" fill="rgb(255, 255, 255)" width="12.6201171875" opacity="0.0" height="13.34765625" stroke="rgb(255, 255, 255)" stroke-width="1.0"/>
                <title>Oxygen 4.</title>
            </g>
            <g class="atom" id="a11">
                <rect x="53.333545908350935" y="18.326171875" fill="rgb(255, 255, 255)" width="12.6201171875" height="13.34765625" stroke="rgb(255, 255, 255)" stroke-width="1.0"/>
                <text x="54.333545908350935" font-size="15.0px" y="30.673828125" fill="rgb(255, 13, 13)" font-family="Serif" stroke="rgb(255, 13, 13)" stroke-width="1.0">O</text>
                <rect x="53.333545908350935" y="18.326171875" fill="rgb(255, 255, 255)" width="12.6201171875" opacity="0.0" height="13.34765625" stroke="rgb(255, 255, 255)" stroke-width="1.0"/>
                <title>Oxygen 2.</title>
            </g>
            <g class="atom" id="a12">
                <rect x="12.14208984375" y="78.32548691154474" fill="rgb(255, 255, 255)" width="25.7158203125" height="13.34765625" stroke="rgb(255, 255, 255)" stroke-width="1.0"/>
                <text x="13.14208984375" font-size="15.0px" y="90.67314316154474" fill="rgb(255, 13, 13)" font-family="Serif" stroke="rgb(255, 13, 13)" stroke-width="1.0">HO</text>
                <rect x="12.14208984375" y="78.32548691154474" fill="rgb(255, 255, 255)" width="25.7158203125" opacity="0.0" height="13.34765625" stroke="rgb(255, 255, 255)" stroke-width="1.0"/>
                <title>Oxygen 3 bonded to 1 hydrogen.</title>
            </g>
            <g class="atom" id="a13">
                <rect x="53.333545908350935" y="138.3248019480895" fill="rgb(255, 255, 255)" width="12.6201171875" height="13.34765625" stroke="rgb(255, 255, 255)" stroke-width="1.0"/>
                <text x="54.333545908350935" font-size="15.0px" y="150.6724581980895" fill="rgb(255, 13, 13)" font-family="Serif" stroke="rgb(255, 13, 13)" stroke-width="1.0">O</text>
                <rect x="53.333545908350935" y="138.3248019480895" fill="rgb(255, 255, 255)" width="12.6201171875" opacity="0.0" height="13.34765625" stroke="rgb(255, 255, 255)" stroke-width="1.0"/>
                <title>Oxygen 2.</title>
            </g>
        </g>
    </g>
    <g class="atom" opacity="0.0" id="a2">
        <rect x="155.968245" width="10.0" height="10.0" y="81.49929499999999"/>
        <title>Carbon 4 bonded to 1 hydrogen.</title>
    </g>
    <g class="atom" opacity="0.0" id="a3">
        <rect x="155.968245" width="10.0" height="10.0" y="118.498873"/>
        <title>Carbon 5 bonded to 1 hydrogen.</title>
    </g>
    <g class="atom" opacity="0.0" id="a4">
        <rect x="123.92282" width="10.0" height="10.0" y="59.999539999999996"/>
        <title>Carbon 3 bonded to 1 hydrogen.</title>
    </g>
    <g class="atom" opacity="0.0" id="a5">
        <rect x="123.92282" width="10.0" height="10.0" y="139.99863"/>
        <title>Carbon 6 bonded to 1 hydrogen.</title>
    </g>
    <g class="atom" opacity="0.0" id="a6">
        <rect x="54.643604" width="10.0" height="10.0" y="179.99817"/>
        <title>Carbon 3.</title>
    </g>
    <g class="atom" opacity="0.0" id="a7">
        <rect x="91.88128" width="10.0" height="10.0" y="81.49929499999999"/>
        <title>Carbon 2.</title>
    </g>
    <g class="atom" opacity="0.0" id="a8">
        <rect x="91.88128" width="10.0" height="10.0" y="118.498873"/>
        <title>Carbon 1.</title>
    </g>
    <g class="atom" opacity="0.0" id="a9">
        <rect x="54.643604" width="10.0" height="10.0" y="59.999539999999996"/>
        <title>Carbon 1.</title>
    </g>
</svg>